<?xml version="1.0" encoding="utf-8"?>
<!-- Generator: Adobe Adobe Illustrator 24.2.0, SVG Export Plug-In . SVG Version: 6.00 Build 0)  -->
<svg version="1.1" id="Layer_1" xmlns="http://www.w3.org/2000/svg" xmlns:xlink="http://www.w3.org/1999/xlink" x="0px" y="0px"
	 width="784.64px" height="722.55px" viewBox="0 0 784.64 722.55" style="enable-background:new 0 0 784.64 722.55;"
	 xml:space="preserve">
<style type="text/css">
	.st0{display:none;}
	.st1{display:inline;}
	.st2{fill:url(#SVGID_1_);}
	.st3{fill:url(#SVGID_2_);}
	.st4{fill:none;stroke:#8F529B;stroke-miterlimit:10;}
	.st5{fill:#44224A;}
	.st6{fill:#8F529B;}
	.st7{fill:url(#SVGID_3_);}
	.st8{opacity:0.7294;fill:#FEDD8E;}
	.st9{fill:#8C5197;}
	.st10{fill:#5E5E5E;}
	.st11{fill:#8C8C8C;}
	.st12{fill:#CF83DE;}
	.st13{fill:#3EB000;}
	.st14{fill:#68ED01;}
	.st15{fill:#B8FF29;}
	.st16{fill:url(#SVGID_4_);}
	.st17{fill:url(#SVGID_5_);}
	.st18{fill:url(#SVGID_6_);}
	.st19{fill:url(#SVGID_7_);}
	.st20{fill:url(#SVGID_8_);}
	.st21{fill:#30356B;}
	.st22{fill:url(#SVGID_9_);}
	.st23{fill:url(#SVGID_10_);}
	.st24{fill:url(#SVGID_11_);}
	.st25{fill:url(#SVGID_12_);}
	.st26{fill:url(#SVGID_13_);}
	.st27{fill:url(#SVGID_14_);}
	.st28{fill:#303361;}
	.st29{fill:#F57743;}
	.st30{fill:url(#SVGID_15_);}
	.st31{fill:#EE8041;}
	.st32{fill:#FAC74C;}
	.st33{fill:#E3793B;}
	.st34{fill:#F1B343;}
	.st35{fill:#FAC84D;}
	.st36{fill:#F2B645;}
	.st37{fill:#FFE79A;}
	.st38{fill:url(#SVGID_16_);}
	.st39{fill:url(#SVGID_17_);}
	.st40{fill:url(#SVGID_18_);}
	.st41{fill:url(#SVGID_19_);}
	.st42{fill:url(#SVGID_20_);}
	.st43{fill:url(#SVGID_21_);}
	.st44{fill:url(#SVGID_22_);}
	.st45{fill:url(#SVGID_23_);}
	.st46{fill:url(#SVGID_24_);}
	.st47{fill:url(#SVGID_25_);}
	.st48{fill:url(#SVGID_26_);}
	.st49{fill:url(#SVGID_27_);}
	.st50{fill:url(#SVGID_28_);}
	.st51{fill:url(#SVGID_29_);}
	.st52{fill:url(#SVGID_30_);}
	.st53{fill:url(#SVGID_31_);}
	.st54{fill:url(#SVGID_32_);}
	.st55{fill:url(#SVGID_33_);}
	.st56{fill:url(#SVGID_34_);}
	.st57{fill:url(#SVGID_35_);}
	.st58{fill:url(#SVGID_36_);}
	.st59{fill:url(#SVGID_37_);}
	.st60{fill:url(#SVGID_38_);}
	.st61{fill:url(#SVGID_39_);}
	.st62{fill:url(#SVGID_40_);}
	.st63{fill:url(#SVGID_41_);}
	.st64{fill:url(#SVGID_42_);}
	.st65{fill:url(#SVGID_43_);}
	.st66{fill:url(#SVGID_44_);}
	.st67{fill:url(#SVGID_45_);}
	.st68{fill:url(#SVGID_46_);}
	.st69{fill:url(#SVGID_47_);}
	.st70{fill:url(#SVGID_48_);}
	.st71{fill:url(#SVGID_49_);}
	.st72{fill:url(#SVGID_50_);}
	.st73{fill:url(#SVGID_51_);}
	.st74{fill:url(#SVGID_52_);}
	.st75{fill:url(#SVGID_53_);}
	.st76{fill:url(#SVGID_54_);}
	.st77{fill:url(#SVGID_55_);}
	.st78{fill:url(#SVGID_56_);}
	.st79{fill:url(#SVGID_57_);}
	.st80{fill:url(#SVGID_58_);}
	.st81{fill:url(#SVGID_59_);}
	.st82{fill:url(#SVGID_60_);}
	.st83{fill:url(#SVGID_61_);}
	.st84{fill:url(#SVGID_62_);}
	.st85{fill:url(#SVGID_63_);}
	.st86{fill:url(#SVGID_64_);}
	.st87{fill:url(#SVGID_65_);}
	.st88{fill:url(#SVGID_66_);}
	.st89{fill:#289263;}
	.st90{fill:url(#SVGID_67_);}
	.st91{fill:url(#SVGID_68_);}
	.st92{fill:#253D38;}
	.st93{fill:#2F7858;}
	.st94{fill:#227350;}
	.st95{fill:#37ED9E;}
	.st96{fill:url(#SVGID_69_);}
	.st97{fill:url(#SVGID_70_);}
	.st98{fill:#474747;}
	.st99{opacity:0.1686;fill:#D9D9D9;}
	.st100{fill:url(#SVGID_71_);}
	.st101{fill:url(#SVGID_72_);}
	.st102{fill:url(#SVGID_73_);}
	.st103{fill:url(#SVGID_74_);}
	.st104{fill:url(#SVGID_75_);}
	.st105{fill:url(#SVGID_76_);}
	.st106{fill:url(#SVGID_77_);}
	.st107{fill:url(#SVGID_78_);}
	.st108{fill:url(#SVGID_79_);}
	.st109{fill:url(#SVGID_80_);}
	.st110{fill:url(#SVGID_81_);}
	.st111{display:inline;fill:none;stroke:#289263;stroke-width:0.7;stroke-miterlimit:10;}
	.st112{display:inline;fill:url(#SVGID_82_);}
	.st113{fill:url(#SVGID_83_);}
	.st114{fill:url(#SVGID_84_);}
	.st115{fill:url(#SVGID_85_);}
	.st116{fill:url(#SVGID_86_);}
	.st117{fill:url(#SVGID_87_);}
	.st118{fill:url(#SVGID_88_);}
	.st119{fill:url(#SVGID_89_);}
	.st120{fill:url(#SVGID_90_);}
	.st121{fill:url(#SVGID_91_);}
	.st122{fill:url(#SVGID_92_);}
	.st123{fill:url(#SVGID_93_);}
	.st124{fill:url(#SVGID_94_);}
	.st125{fill:url(#SVGID_95_);}
	.st126{fill:url(#SVGID_96_);}
	.st127{fill:url(#SVGID_97_);}
	.st128{fill:url(#SVGID_98_);}
	.st129{fill:url(#SVGID_99_);}
	.st130{fill:url(#SVGID_100_);}
	.st131{fill:url(#SVGID_101_);}
	.st132{fill:url(#SVGID_102_);}
	.st133{fill:url(#SVGID_103_);}
	.st134{fill:url(#SVGID_104_);}
	.st135{fill:url(#SVGID_105_);}
	.st136{fill:url(#SVGID_106_);}
	.st137{fill:url(#SVGID_107_);}
	.st138{fill:url(#SVGID_108_);}
	.st139{fill:url(#SVGID_109_);}
	.st140{fill:url(#SVGID_110_);}
	.st141{fill:url(#SVGID_111_);}
	.st142{fill:url(#SVGID_112_);}
	.st143{fill:url(#SVGID_113_);}
	.st144{fill:url(#SVGID_114_);}
	.st145{fill:url(#SVGID_115_);}
	.st146{fill:url(#SVGID_116_);}
	.st147{fill:url(#SVGID_117_);}
	.st148{fill:url(#SVGID_118_);}
	.st149{fill:url(#SVGID_119_);}
	.st150{fill:url(#SVGID_120_);}
	.st151{fill:url(#SVGID_121_);}
	.st152{fill:url(#SVGID_122_);}
	.st153{fill:url(#SVGID_123_);}
	.st154{fill:url(#SVGID_124_);}
	.st155{fill:url(#SVGID_125_);}
	.st156{fill:url(#SVGID_126_);}
	.st157{fill:url(#SVGID_127_);}
	.st158{fill:#185E40;}
	.st159{fill:url(#SVGID_128_);}
	.st160{fill:url(#SVGID_129_);}
	.st161{fill:url(#SVGID_130_);}
	.st162{fill:url(#SVGID_131_);}
	.st163{fill:url(#SVGID_132_);}
	.st164{fill:url(#SVGID_133_);}
	.st165{opacity:0.702;fill:url(#SVGID_134_);}
	.st166{fill:url(#SVGID_135_);}
	.st167{opacity:0.4588;fill:#232D67;}
	.st168{fill:url(#SVGID_136_);}
	.st169{fill:url(#SVGID_137_);}
	.st170{fill:url(#SVGID_138_);}
	.st171{fill:url(#SVGID_139_);}
	.st172{fill:url(#SVGID_140_);}
	.st173{fill:url(#SVGID_141_);}
	.st174{fill:url(#SVGID_142_);}
	.st175{fill:url(#SVGID_143_);}
	.st176{fill:#424987;}
	.st177{fill:#424886;}
	.st178{fill:#FDAB5B;}
	.st179{fill:url(#SVGID_144_);}
	.st180{fill:url(#SVGID_145_);}
	.st181{fill:url(#SVGID_146_);}
	.st182{fill:#BA5D8F;}
	.st183{fill:url(#SVGID_147_);}
	.st184{fill:url(#SVGID_148_);}
	.st185{fill:url(#SVGID_149_);}
	.st186{fill:#683573;}
	.st187{fill:url(#SVGID_150_);}
	.st188{fill:url(#SVGID_151_);}
	.st189{fill:url(#SVGID_152_);}
	.st190{fill:url(#SVGID_153_);}
	.st191{fill:url(#SVGID_154_);}
	.st192{fill:url(#SVGID_155_);}
	.st193{fill:url(#SVGID_156_);}
	.st194{fill:url(#SVGID_157_);}
	.st195{fill:url(#SVGID_158_);}
	.st196{fill:url(#SVGID_159_);}
	.st197{fill:none;stroke:#289263;stroke-width:0.7;stroke-miterlimit:10;}
	.st198{fill:url(#SVGID_160_);}
	.st199{fill:url(#SVGID_161_);}
	.st200{fill:url(#SVGID_162_);}
	.st201{fill:url(#SVGID_163_);}
	.st202{fill:url(#SVGID_164_);}
	.st203{fill:url(#SVGID_165_);}
	.st204{fill:url(#SVGID_166_);}
	.st205{opacity:0.702;fill:url(#SVGID_167_);}
	.st206{fill:url(#SVGID_168_);}
	.st207{fill:url(#SVGID_169_);}
	.st208{fill:url(#SVGID_170_);}
	.st209{fill:url(#SVGID_171_);}
	.st210{fill:url(#SVGID_172_);}
	.st211{fill:url(#SVGID_173_);}
	.st212{fill:url(#SVGID_174_);}
	.st213{fill:url(#SVGID_175_);}
	.st214{fill:url(#SVGID_176_);}
	.st215{fill:url(#SVGID_177_);}
	.st216{fill:url(#SVGID_178_);}
	.st217{fill:url(#SVGID_179_);}
	.st218{fill:url(#SVGID_180_);}
	.st219{fill:url(#SVGID_181_);}
	.st220{fill:url(#SVGID_182_);}
	.st221{fill:url(#SVGID_183_);}
	.st222{fill:url(#SVGID_184_);}
	.st223{fill:url(#SVGID_185_);}
	.st224{fill:url(#SVGID_186_);}
	.st225{fill:url(#SVGID_187_);}
	.st226{fill:url(#SVGID_188_);}
	.st227{fill:url(#SVGID_189_);}
	.st228{fill:url(#SVGID_190_);}
	.st229{fill:url(#SVGID_191_);}
	.st230{fill:url(#SVGID_192_);}
</style>
<g>
	<g>
		<g>
			<g>
				
					<linearGradient id="SVGID_1_" gradientUnits="userSpaceOnUse" x1="283.2701" y1="-259.5267" x2="247.5502" y2="-1045.3651" gradientTransform="matrix(1.043 -0.0393 0.0292 0.7753 124.7254 879.0443)">
					<stop  offset="0" style="stop-color:#30356D"/>
					<stop  offset="1" style="stop-color:#1F1F1F;stop-opacity:0"/>
				</linearGradient>
				<path class="st2" d="M21.19,657.25L0.81,116.39c-1.04-27.55,23.1-50.86,54-52.15l632.43-26.41
					c30.39-1.27,56.19,19.26,58.19,46.3l38.3,517.04c2.03,27.36-21.02,51.27-51.69,53.64L81.7,705.04
					C49.8,707.51,22.27,685.76,21.19,657.25z"/>
				
					<linearGradient id="SVGID_2_" gradientUnits="userSpaceOnUse" x1="-251.3799" y1="424.4565" x2="740.123" y2="424.4565" gradientTransform="matrix(1.043 -0.0393 0.0367 0.9746 87.2804 -109.4449)">
					<stop  offset="0" style="stop-color:#121212"/>
					<stop  offset="9.592784e-03" style="stop-color:#131415"/>
					<stop  offset="0.1705" style="stop-color:#292B3F"/>
					<stop  offset="0.3154" style="stop-color:#383C5E"/>
					<stop  offset="0.4382" style="stop-color:#424671"/>
					<stop  offset="0.524" style="stop-color:#454A78"/>
					<stop  offset="0.6403" style="stop-color:#3B3F64"/>
					<stop  offset="0.8779" style="stop-color:#21222F"/>
					<stop  offset="1" style="stop-color:#121212"/>
				</linearGradient>
				<path class="st3" d="M5.26,234.65c126.44-32.33,87.48-51.73,193.94-25.26s78.99,46.14,200.78,49.7
					c121.79,3.56,321.9-61.92,349.38-79.71l3.85,54.31c0,0-26.67-11.32-129.41,42.63s-315.3-39.32-410.72-22.28
					S12.02,413.94,12.02,413.94L5.26,234.65z"/>
				
					<linearGradient id="SVGID_3_" gradientUnits="userSpaceOnUse" x1="-223.2586" y1="514.9883" x2="769.0607" y2="514.9883" gradientTransform="matrix(1.043 -0.0393 0.0367 0.9746 87.2804 -109.4449)">
					<stop  offset="0" style="stop-color:#121212"/>
					<stop  offset="0.012" style="stop-color:#141416"/>
					<stop  offset="0.1489" style="stop-color:#27293C"/>
					<stop  offset="0.2755" style="stop-color:#353857"/>
					<stop  offset="0.3867" style="stop-color:#3D4268"/>
					<stop  offset="0.4705" style="stop-color:#40456E"/>
					<stop  offset="0.5649" style="stop-color:#3D4268"/>
					<stop  offset="0.6901" style="stop-color:#353857"/>
					<stop  offset="0.8326" style="stop-color:#27293C"/>
					<stop  offset="0.9869" style="stop-color:#141416"/>
					<stop  offset="1" style="stop-color:#121212"/>
				</linearGradient>
				<path class="st7" d="M11.53,400.91c126.44-32.33,173.92-97.92,280.38-71.44c106.46,26.47,176.11-25.71,254.16,26.47
					c89.13,59.58,185.9-2,213.38-19.79l2.42,28.84c0,0-155.35,64.49-247.07,27.57c-107.69-43.35-202.28-48.73-297.7-31.69
					c-95.42,17.04-203.34,99.19-203.34,99.19L11.53,400.91z"/>
			</g>
		</g>
		<g>
			<g>
				<path class="st29" d="M174.31,542.6V208.33c0-28.72,23.28-52,52-52h314.46c28.72,0,52,23.28,52,52V542.6c0,28.72-23.28,52-52,52
					H226.32C197.6,594.6,174.31,571.32,174.31,542.6z"/>
				<linearGradient id="SVGID_4_" gradientUnits="userSpaceOnUse" x1="383.5453" y1="151.2846" x2="383.5453" y2="654.504">
					<stop  offset="0" style="stop-color:#FCCB4E"/>
					<stop  offset="1" style="stop-color:#EDAB40"/>
				</linearGradient>
				<path class="st16" d="M174.31,536.26v-351.3c0-24.02,19.47-43.49,43.49-43.49h331.49c24.02,0,43.49,19.47,43.49,43.49v351.3
					c0,24.02-19.47,43.49-43.49,43.49H217.8C193.78,579.75,174.31,560.28,174.31,536.26z"/>
				<path class="st31" d="M202.44,282.87V172.31c0-0.59,0.47-1.06,1.06-1.06h105.47c0.59,0,1.06,0.47,1.06,1.06v110.56
					c0,0.59-0.47,1.06-1.06,1.06H203.5C202.91,283.93,202.44,283.46,202.44,282.87z"/>
				<path class="st32" d="M216.6,268.06v-82.63c0-0.59,0.47-1.06,1.06-1.06h78.8c0.59,0,1.06,0.47,1.06,1.06v82.63
					c0,0.59-0.47,1.06-1.06,1.06h-78.8C217.08,269.12,216.6,268.65,216.6,268.06z"/>
				<path class="st31" d="M237.78,245.84v-38.73c0-0.59,0.47-1.06,1.06-1.06h36.89c0.59,0,1.06,0.47,1.06,1.06v38.73
					c0,0.59-0.47,1.06-1.06,1.06h-36.89C238.25,246.9,237.78,246.43,237.78,245.84z"/>
				<path class="st33" d="M459.49,549.46V443.87c0-0.59,0.47-1.06,1.06-1.06h102.49c0.59,0,1.06,0.47,1.06,1.06v105.59
					c0,0.59-0.47,1.06-1.06,1.06H460.55C459.97,550.52,459.49,550.04,459.49,549.46z"/>
				<path class="st34" d="M473.26,535.3v-78.89c0-0.59,0.47-1.06,1.06-1.06h76.56c0.59,0,1.06,0.47,1.06,1.06v78.89
					c0,0.59-0.47,1.06-1.06,1.06h-76.56C473.74,536.36,473.26,535.88,473.26,535.3z"/>
				<path class="st33" d="M493.86,514.06v-36.93c0-0.59,0.47-1.06,1.06-1.06h35.81c0.59,0,1.06,0.47,1.06,1.06v36.93
					c0,0.59-0.47,1.06-1.06,1.06h-35.81C494.33,515.12,493.86,514.65,493.86,514.06z"/>
				<path class="st31" d="M463.1,276.67v-98.16c0-0.59,0.47-1.06,1.06-1.06h95.28c0.59,0,1.06,0.47,1.06,1.06v98.16
					c0,0.59-0.47,1.06-1.06,1.06h-95.28C463.58,277.73,463.1,277.26,463.1,276.67z"/>
				<path class="st35" d="M475.92,263.49v-73.3c0-0.59,0.47-1.06,1.06-1.06h71.13c0.59,0,1.06,0.47,1.06,1.06v73.3
					c0,0.59-0.47,1.06-1.06,1.06h-71.13C476.4,264.55,475.92,264.07,475.92,263.49z"/>
				<path class="st31" d="M495.1,243.72v-34.24c0-0.59,0.47-1.06,1.06-1.06h33.19c0.59,0,1.06,0.47,1.06,1.06v34.24
					c0,0.59-0.47,1.06-1.06,1.06h-33.19C495.57,244.78,495.1,244.3,495.1,243.72z"/>
				<path class="st33" d="M274.11,497.22v-72.18c0-0.59,0.47-1.06,1.06-1.06h70.04c0.59,0,1.06,0.47,1.06,1.06v72.18
					c0,0.59-0.47,1.06-1.06,1.06h-70.04C274.58,498.28,274.11,497.81,274.11,497.22z"/>
				<path class="st36" d="M283.61,487.46V433.7c0-0.59,0.47-1.06,1.06-1.06h52.15c0.59,0,1.06,0.47,1.06,1.06v53.76
					c0,0.59-0.47,1.06-1.06,1.06h-52.15C284.08,488.52,283.61,488.04,283.61,487.46z"/>
				<path class="st33" d="M297.81,472.81v-24.82c0-0.59,0.47-1.06,1.06-1.06h24.04c0.59,0,1.06,0.47,1.06,1.06v24.82
					c0,0.59-0.47,1.06-1.06,1.06h-24.04C298.29,473.87,297.81,473.39,297.81,472.81z"/>
				<path class="st31" d="M436.62,227.59L436.62,227.59c3.41,0,6.18,2.9,6.18,6.47v63.18c0,3.56,2.74,6.45,6.13,6.47l33.48,0.26
					c3.4,0.03,6.13,2.92,6.13,6.47v0.88c0,3.59-2.79,6.49-6.22,6.47l-45.14-0.28c-3.38-0.02-6.12-2.88-6.14-6.42l-0.61-76.98
					C430.41,230.52,433.18,227.59,436.62,227.59z"/>
				<path class="st31" d="M463.1,410.58L463.1,410.58c0-3.57,2.77-6.47,6.18-6.47l60.32,0c3.4,0,6.15-2.87,6.18-6.42l0.25-35.06
					c0.03-3.56,2.78-6.42,6.18-6.42h0.84c3.43,0,6.2,2.92,6.18,6.51l-0.27,47.28c-0.02,3.54-2.75,6.4-6.13,6.43l-73.5,0.64
					C465.9,417.08,463.1,414.17,463.1,410.58z"/>
				<path class="st31" d="M330.35,187.84v-7.04c0-1.85,1.43-3.35,3.2-3.35h64.53c1.77,0,3.2,1.5,3.2,3.35v7.04
					c0,1.85-1.43,3.35-3.2,3.35h-15.91c-1.77,0-3.21,1.51-3.2,3.37l0.05,9.17c0.01,1.88-1.46,3.4-3.26,3.37l-12.33-0.24
					c-1.79-0.04-3.2-1.59-3.14-3.46l0.28-8.74c0.06-1.89-1.39-3.46-3.2-3.46h-23.82C331.78,191.2,330.35,189.69,330.35,187.84z"/>
				<path class="st31" d="M208.47,388.37v-44.51c0-1.92,1.76-3.49,3.93-3.49h5.79c2.17,0,3.93,1.56,3.93,3.49v30.25
					c0,1.94,1.78,3.5,3.97,3.48l67.86-0.59c2.16-0.02,3.9-1.58,3.89-3.5l-0.02-5.71c-0.01-1.93,1.76-3.5,3.94-3.5l10.59,0.02
					c2.15,0,3.9,1.54,3.92,3.45l0.37,30.37c0.02,1.99-1.83,3.59-4.08,3.52l-10.39-0.35c-2.07-0.07-3.73-1.56-3.78-3.4l-0.09-3.18
					c-0.05-1.9-1.81-3.41-3.96-3.4l-81.9,0.52C210.24,391.87,208.47,390.31,208.47,388.37z"/>
				<path class="st31" d="M551.91,370.81c1.74,0,3.15-1.8,3.15-4.02v-10.6h-7.99l-0.2-18.69l-9.74-0.16l0.06,14.81
					c0.01,2.23-1.4,4.04-3.15,4.04H374.29c-1.74,0-3.15,1.8-3.15,4.02v6.58c0,2.22,1.41,4.02,3.15,4.02h15.76
					c1.73,0,3.13,1.78,3.15,3.98l0.23,30.35c0.02,2.21,1.43,3.99,3.16,3.98l26.63-0.15l0.12-12.67l-16.76-0.49
					c-1.71-0.05-3.07-1.83-3.08-4.01l-0.04-16.96c0-2.23,1.41-4.03,3.15-4.03H551.91z"/>
				<path class="st33" d="M425,524.87v-21.78c0-2.2-1.68-4-3.78-4.04l-6.72-0.13c-2.16-0.04-3.93,1.78-3.93,4.04l0.04,36.8
					c0,2.25-1.75,4.07-3.9,4.04l-23.62-0.26l-0.02-9.38l10.06,0.1c2.15,0.02,3.9-1.8,3.89-4.04l-0.04-31.65v-11.15
					c0-2.21,1.7-4.01,3.81-4.04l20.39-0.25c2.11-0.03,3.81-1.83,3.81-4.04V456.8c0-2.23,1.73-4.04,3.86-4.04h6.47
					c2.13,0,3.86,1.81,3.86,4.04v68.06c0,2.23-1.73,4.04-3.86,4.04h-6.47C426.73,528.91,425,527.1,425,524.87z"/>
				<path class="st31" d="M308.22,317.85l-0.03-9.66l31.09-0.03c1.29,0,2.34-1.52,2.34-3.4v-28.58c0-1.83-0.99-3.33-2.25-3.4
					l-5.2-0.28c-1.26-0.07-2.25-1.57-2.25-3.4v-7.98c0-1.89,1.06-3.41,2.35-3.4l15.93,0.17c1.28,0.01,2.32,1.53,2.32,3.4v53.38
					c0,1.88-1.05,3.41-2.34,3.4L308.22,317.85z"/>
				<path class="st33" d="M242.71,523.11v-50.47c0-2.96-2.3-5.37-5.13-5.36l-11.89,0.03l-0.35-9.45l22.9,0.01
					c2.83,0,5.12,2.4,5.12,5.36v49.14c0,2.94,2.26,5.33,5.06,5.36l22.5,0.25c2.8,0.03,5.06,2.42,5.06,5.36l0,0
					c0,2.97-2.31,5.38-5.15,5.36l-33.03-0.23C244.98,528.45,242.71,526.06,242.71,523.11z"/>
				<path class="st37" d="M174.31,490.61V182.74c0-26.16,14.5-45.22,55.96-41.27h255.81c15.45,0-258.01-3.22-285.75,23.96
					C172.33,192.87,174.31,506.79,174.31,490.61z"/>
			</g>
			
				<linearGradient id="SVGID_5_" gradientUnits="userSpaceOnUse" x1="-14111.4873" y1="9626.126" x2="-14539.0029" y2="10118.4893" gradientTransform="matrix(-1 0 0 -1 -13949.8164 10248.9072)">
				<stop  offset="0" style="stop-color:#1F1E1F;stop-opacity:0"/>
				<stop  offset="1" style="stop-color:#A665AB"/>
			</linearGradient>
			<path class="st17" d="M140.34,588.66l-0.59-240.24l-0.68-120.12l-0.38-60.06l-0.09-15.01c-0.13-5,0.4-10.48,2.23-15.38
				c3.5-9.93,11.3-18.27,21.08-22.36c4.85-2.07,10.22-3.03,15.43-3.03l15.01-0.09l30.03-0.19l60.06-0.38l120.12-0.7l120.12-0.3
				l60.06-0.15c2.4-0.02,5.18-0.01,7.97,0.3c2.75,0.35,5.48,0.93,8.11,1.83c5.26,1.78,10.14,4.67,14.23,8.42
				c8.24,7.44,13.19,18.48,13.14,29.64l-0.58,240.24l-0.68,120.12l-0.38,60.06l-0.1,15.01c0.07,5.01-0.53,10.6-2.44,15.52
				c-3.66,9.99-11.62,18.27-21.45,22.25c-4.88,2.01-10.25,2.91-15.44,2.84l-15.01-0.1l-30.03-0.19l-60.06-0.38l-120.12-0.69
				l-120.12-0.3l-60.06-0.15c-10.01,0.58-20.31-2.75-27.65-9.67C144.65,608.64,140.25,598.7,140.34,588.66z M140.34,588.66
				c-0.04,10.04,4.41,19.93,11.82,26.63c7.35,6.86,17.57,10.1,27.55,9.48l60.06-0.15l120.12-0.3l120.12-0.69l60.06-0.38l30.03-0.19
				l15.01-0.1c4.82-0.01,9.5-0.87,13.86-2.72c8.73-3.66,15.69-11.14,18.81-19.99c1.63-4.49,2.09-9.01,1.98-13.99l-0.1-15.01
				l-0.38-60.06l-0.68-120.12l-0.58-240.24c0.08-8.92-3.82-17.72-10.4-23.74c-3.27-3.02-7.17-5.36-11.38-6.81
				c-2.1-0.73-4.29-1.21-6.5-1.5c-2.19-0.25-4.42-0.29-7.02-0.28l-60.06-0.15l-120.12-0.3l-120.12-0.7l-60.06-0.38l-30.03-0.19
				l-15.01-0.09c-4.8-0.06-9.47,0.73-13.87,2.53c-8.78,3.54-15.9,10.95-19.18,19.87c-1.71,4.5-2.24,9.13-2.19,14.12l-0.09,15.01
				l-0.38,60.06l-0.68,120.12L140.34,588.66z"/>
			
				<linearGradient id="SVGID_6_" gradientUnits="userSpaceOnUse" x1="5040.6597" y1="5835.8701" x2="5087.6309" y2="5766.5229" gradientTransform="matrix(0.4432 -0.4432 0.5548 0.5548 -5376.6626 -524.8131)">
				<stop  offset="0" style="stop-color:#656AAA"/>
				<stop  offset="1" style="stop-color:#CF83DE"/>
			</linearGradient>
			<path class="st18" d="M89.04,489.95c-1.64-35.96-28.72-45.25-28.72-45.25c23.91,1.09,25.64-36.5,25.64-36.5
				c1.49,32.87,25.5,40.19,25.5,40.19C90.33,447.44,89.04,489.95,89.04,489.95z"/>
			
				<linearGradient id="SVGID_7_" gradientUnits="userSpaceOnUse" x1="5020.9932" y1="6239.374" x2="5067.9639" y2="6170.0269" gradientTransform="matrix(0.4432 -0.4432 0.5548 0.5548 -5376.6626 -524.8131)">
				<stop  offset="0" style="stop-color:#656AAA"/>
				<stop  offset="1" style="stop-color:#CF83DE"/>
			</linearGradient>
			<path class="st19" d="M304.2,722.55c-1.64-35.96-28.72-45.25-28.72-45.25c23.91,1.09,25.64-36.5,25.64-36.5
				c1.49,32.87,25.5,40.19,25.5,40.19C305.49,680.03,304.2,722.55,304.2,722.55z"/>
			
				<linearGradient id="SVGID_8_" gradientUnits="userSpaceOnUse" x1="5715.0107" y1="5638.8613" x2="5761.9819" y2="5569.5142" gradientTransform="matrix(0.4432 -0.4432 0.5548 0.5548 -5376.6626 -524.8131)">
				<stop  offset="0" style="stop-color:#656AAA"/>
				<stop  offset="1" style="stop-color:#CF83DE"/>
			</linearGradient>
			<path class="st20" d="M278.63,81.74C277,45.78,249.91,36.5,249.91,36.5C273.82,37.58,275.55,0,275.55,0
				c1.49,32.87,25.5,40.19,25.5,40.19C279.92,39.23,278.63,81.74,278.63,81.74z"/>
			
				<linearGradient id="SVGID_9_" gradientUnits="userSpaceOnUse" x1="5807.7358" y1="6196.8535" x2="5854.707" y2="6127.5063" gradientTransform="matrix(0.4432 -0.4432 0.5548 0.5548 -5376.6626 -524.8131)">
				<stop  offset="0" style="stop-color:#656AAA"/>
				<stop  offset="1" style="stop-color:#CF83DE"/>
			</linearGradient>
			<path class="st22" d="M629.32,350.24c-1.64-35.96-28.72-45.25-28.72-45.25c23.91,1.09,25.64-36.5,25.64-36.5
				c1.49,32.87,25.5,40.19,25.5,40.19C630.62,307.72,629.32,350.24,629.32,350.24z"/>
			
				<linearGradient id="SVGID_10_" gradientUnits="userSpaceOnUse" x1="3376.8472" y1="6123.9443" x2="3454.0593" y2="6009.9507" gradientTransform="matrix(0.5358 -0.5358 0.6123 0.6123 -4830.8608 -1485.6094)">
				<stop  offset="0" style="stop-color:#656AAA"/>
				<stop  offset="1" style="stop-color:#CF83DE"/>
			</linearGradient>
			<path class="st23" d="M715.07,476.56c0-68.2-50.67-83.51-50.67-83.51c45.34,0,51.89-71.58,51.89-71.58
				c0,62.34,44.99,74.18,44.99,74.18C721.2,395.65,715.07,476.56,715.07,476.56z"/>
		</g>
	</g>
</g>
</svg>
