<?xml version="1.0" encoding="utf-8"?>
<!-- Generator: Adobe Adobe Illustrator 24.2.0, SVG Export Plug-In . SVG Version: 6.00 Build 0)  -->
<svg version="1.1" id="Layer_1" xmlns="http://www.w3.org/2000/svg" xmlns:xlink="http://www.w3.org/1999/xlink" x="0px" y="0px"
	 width="780.27px" height="698.16px" viewBox="0 0 780.27 698.16" style="enable-background:new 0 0 780.27 698.16;"
	 xml:space="preserve">
<style type="text/css">
	.st0{display:none;}
	.st1{display:inline;}
	.st2{fill:url(#SVGID_1_);}
	.st3{fill:url(#SVGID_2_);}
	.st4{fill:none;stroke:#8F529B;stroke-miterlimit:10;}
	.st5{fill:#44224A;}
	.st6{fill:#8F529B;}
	.st7{fill:url(#SVGID_3_);}
	.st8{opacity:0.7294;fill:#FEDD8E;}
	.st9{fill:#8C5197;}
	.st10{fill:#5E5E5E;}
	.st11{fill:#8C8C8C;}
	.st12{fill:#CF83DE;}
	.st13{fill:#3EB000;}
	.st14{fill:#68ED01;}
	.st15{fill:#B8FF29;}
	.st16{fill:url(#SVGID_4_);}
	.st17{fill:url(#SVGID_5_);}
	.st18{fill:url(#SVGID_6_);}
	.st19{fill:url(#SVGID_7_);}
	.st20{fill:url(#SVGID_8_);}
	.st21{fill:#30356B;}
	.st22{fill:url(#SVGID_9_);}
	.st23{fill:url(#SVGID_10_);}
	.st24{fill:url(#SVGID_11_);}
	.st25{fill:url(#SVGID_12_);}
	.st26{fill:url(#SVGID_13_);}
	.st27{fill:url(#SVGID_14_);}
	.st28{fill:#303361;}
	.st29{fill:#F57743;}
	.st30{fill:url(#SVGID_15_);}
	.st31{fill:#EE8041;}
	.st32{fill:#FAC74C;}
	.st33{fill:#E3793B;}
	.st34{fill:#F1B343;}
	.st35{fill:#FAC84D;}
	.st36{fill:#F2B645;}
	.st37{fill:#FFE79A;}
	.st38{fill:url(#SVGID_16_);}
	.st39{fill:url(#SVGID_17_);}
	.st40{fill:url(#SVGID_18_);}
	.st41{fill:url(#SVGID_19_);}
	.st42{fill:url(#SVGID_20_);}
	.st43{fill:url(#SVGID_21_);}
	.st44{fill:url(#SVGID_22_);}
	.st45{fill:url(#SVGID_23_);}
	.st46{fill:url(#SVGID_24_);}
	.st47{fill:url(#SVGID_25_);}
	.st48{fill:url(#SVGID_26_);}
	.st49{fill:url(#SVGID_27_);}
	.st50{fill:url(#SVGID_28_);}
	.st51{fill:url(#SVGID_29_);}
	.st52{fill:url(#SVGID_30_);}
	.st53{fill:url(#SVGID_31_);}
	.st54{fill:url(#SVGID_32_);}
	.st55{fill:url(#SVGID_33_);}
	.st56{fill:url(#SVGID_34_);}
	.st57{fill:url(#SVGID_35_);}
	.st58{fill:url(#SVGID_36_);}
	.st59{fill:url(#SVGID_37_);}
	.st60{fill:url(#SVGID_38_);}
	.st61{fill:url(#SVGID_39_);}
	.st62{fill:url(#SVGID_40_);}
	.st63{fill:url(#SVGID_41_);}
	.st64{fill:url(#SVGID_42_);}
	.st65{fill:url(#SVGID_43_);}
	.st66{fill:url(#SVGID_44_);}
	.st67{fill:url(#SVGID_45_);}
	.st68{fill:url(#SVGID_46_);}
	.st69{fill:url(#SVGID_47_);}
	.st70{fill:url(#SVGID_48_);}
	.st71{fill:url(#SVGID_49_);}
	.st72{fill:url(#SVGID_50_);}
	.st73{fill:url(#SVGID_51_);}
	.st74{fill:url(#SVGID_52_);}
	.st75{fill:url(#SVGID_53_);}
	.st76{fill:url(#SVGID_54_);}
	.st77{fill:url(#SVGID_55_);}
	.st78{fill:url(#SVGID_56_);}
	.st79{fill:url(#SVGID_57_);}
	.st80{fill:url(#SVGID_58_);}
	.st81{fill:url(#SVGID_59_);}
	.st82{fill:url(#SVGID_60_);}
	.st83{fill:url(#SVGID_61_);}
	.st84{fill:url(#SVGID_62_);}
	.st85{fill:url(#SVGID_63_);}
	.st86{fill:url(#SVGID_64_);}
	.st87{fill:url(#SVGID_65_);}
	.st88{fill:url(#SVGID_66_);}
	.st89{fill:#289263;}
	.st90{fill:url(#SVGID_67_);}
	.st91{fill:url(#SVGID_68_);}
	.st92{fill:#253D38;}
	.st93{fill:#2F7858;}
	.st94{fill:#227350;}
	.st95{fill:#37ED9E;}
	.st96{fill:url(#SVGID_69_);}
	.st97{fill:url(#SVGID_70_);}
	.st98{fill:#474747;}
	.st99{opacity:0.1686;fill:#D9D9D9;}
	.st100{fill:url(#SVGID_71_);}
	.st101{fill:url(#SVGID_72_);}
	.st102{fill:url(#SVGID_73_);}
	.st103{fill:url(#SVGID_74_);}
	.st104{fill:url(#SVGID_75_);}
	.st105{fill:url(#SVGID_76_);}
	.st106{fill:url(#SVGID_77_);}
	.st107{fill:url(#SVGID_78_);}
	.st108{fill:url(#SVGID_79_);}
	.st109{fill:url(#SVGID_80_);}
	.st110{fill:url(#SVGID_81_);}
	.st111{display:inline;fill:none;stroke:#289263;stroke-width:0.7;stroke-miterlimit:10;}
	.st112{display:inline;fill:url(#SVGID_82_);}
	.st113{fill:url(#SVGID_83_);}
	.st114{fill:url(#SVGID_84_);}
	.st115{fill:url(#SVGID_85_);}
	.st116{fill:url(#SVGID_86_);}
	.st117{fill:url(#SVGID_87_);}
	.st118{fill:url(#SVGID_88_);}
	.st119{fill:url(#SVGID_89_);}
	.st120{fill:url(#SVGID_90_);}
	.st121{fill:url(#SVGID_91_);}
	.st122{fill:url(#SVGID_92_);}
	.st123{fill:url(#SVGID_93_);}
	.st124{fill:url(#SVGID_94_);}
	.st125{fill:url(#SVGID_95_);}
	.st126{fill:url(#SVGID_96_);}
	.st127{fill:url(#SVGID_97_);}
	.st128{fill:url(#SVGID_98_);}
	.st129{fill:url(#SVGID_99_);}
	.st130{fill:url(#SVGID_100_);}
	.st131{fill:url(#SVGID_101_);}
	.st132{fill:url(#SVGID_102_);}
	.st133{fill:url(#SVGID_103_);}
	.st134{fill:url(#SVGID_104_);}
	.st135{fill:url(#SVGID_105_);}
	.st136{fill:url(#SVGID_106_);}
	.st137{fill:url(#SVGID_107_);}
	.st138{fill:url(#SVGID_108_);}
	.st139{fill:url(#SVGID_109_);}
	.st140{fill:url(#SVGID_110_);}
	.st141{fill:url(#SVGID_111_);}
	.st142{fill:url(#SVGID_112_);}
	.st143{fill:url(#SVGID_113_);}
	.st144{fill:url(#SVGID_114_);}
	.st145{fill:url(#SVGID_115_);}
	.st146{fill:url(#SVGID_116_);}
	.st147{fill:url(#SVGID_117_);}
	.st148{fill:url(#SVGID_118_);}
	.st149{fill:url(#SVGID_119_);}
	.st150{fill:url(#SVGID_120_);}
	.st151{fill:url(#SVGID_121_);}
	.st152{fill:url(#SVGID_122_);}
	.st153{fill:url(#SVGID_123_);}
	.st154{fill:url(#SVGID_124_);}
	.st155{fill:url(#SVGID_125_);}
	.st156{fill:url(#SVGID_126_);}
	.st157{fill:url(#SVGID_127_);}
	.st158{fill:#185E40;}
	.st159{fill:url(#SVGID_128_);}
	.st160{fill:url(#SVGID_129_);}
	.st161{fill:url(#SVGID_130_);}
	.st162{fill:url(#SVGID_131_);}
	.st163{fill:url(#SVGID_132_);}
	.st164{fill:url(#SVGID_133_);}
	.st165{opacity:0.702;fill:url(#SVGID_134_);}
	.st166{fill:url(#SVGID_135_);}
	.st167{opacity:0.4588;fill:#232D67;}
	.st168{fill:url(#SVGID_136_);}
	.st169{fill:url(#SVGID_137_);}
	.st170{fill:url(#SVGID_138_);}
	.st171{fill:url(#SVGID_139_);}
	.st172{fill:url(#SVGID_140_);}
	.st173{fill:url(#SVGID_141_);}
	.st174{fill:url(#SVGID_142_);}
	.st175{fill:url(#SVGID_143_);}
	.st176{fill:#424987;}
	.st177{fill:#424886;}
	.st178{fill:#FDAB5B;}
	.st179{fill:url(#SVGID_144_);}
	.st180{fill:url(#SVGID_145_);}
	.st181{fill:url(#SVGID_146_);}
	.st182{fill:#BA5D8F;}
	.st183{fill:url(#SVGID_147_);}
	.st184{fill:url(#SVGID_148_);}
	.st185{fill:url(#SVGID_149_);}
	.st186{fill:#683573;}
	.st187{fill:url(#SVGID_150_);}
	.st188{fill:url(#SVGID_151_);}
	.st189{fill:url(#SVGID_152_);}
	.st190{fill:url(#SVGID_153_);}
	.st191{fill:url(#SVGID_154_);}
	.st192{fill:url(#SVGID_155_);}
	.st193{fill:url(#SVGID_156_);}
	.st194{fill:url(#SVGID_157_);}
	.st195{fill:url(#SVGID_158_);}
	.st196{fill:url(#SVGID_159_);}
	.st197{fill:none;stroke:#289263;stroke-width:0.7;stroke-miterlimit:10;}
	.st198{fill:url(#SVGID_160_);}
	.st199{fill:url(#SVGID_161_);}
	.st200{fill:url(#SVGID_162_);}
	.st201{fill:url(#SVGID_163_);}
	.st202{fill:url(#SVGID_164_);}
	.st203{fill:url(#SVGID_165_);}
	.st204{fill:url(#SVGID_166_);}
	.st205{opacity:0.702;fill:url(#SVGID_167_);}
	.st206{fill:url(#SVGID_168_);}
	.st207{fill:url(#SVGID_169_);}
	.st208{fill:url(#SVGID_170_);}
	.st209{fill:url(#SVGID_171_);}
	.st210{fill:url(#SVGID_172_);}
	.st211{fill:url(#SVGID_173_);}
	.st212{fill:url(#SVGID_174_);}
	.st213{fill:url(#SVGID_175_);}
	.st214{fill:url(#SVGID_176_);}
	.st215{fill:url(#SVGID_177_);}
	.st216{fill:url(#SVGID_178_);}
	.st217{fill:url(#SVGID_179_);}
	.st218{fill:url(#SVGID_180_);}
	.st219{fill:url(#SVGID_181_);}
	.st220{fill:url(#SVGID_182_);}
	.st221{fill:url(#SVGID_183_);}
	.st222{fill:url(#SVGID_184_);}
	.st223{fill:url(#SVGID_185_);}
	.st224{fill:url(#SVGID_186_);}
	.st225{fill:url(#SVGID_187_);}
	.st226{fill:url(#SVGID_188_);}
	.st227{fill:url(#SVGID_189_);}
	.st228{fill:url(#SVGID_190_);}
	.st229{fill:url(#SVGID_191_);}
	.st230{fill:url(#SVGID_192_);}
</style>
<g>
	<g>
		
			<linearGradient id="SVGID_1_" gradientUnits="userSpaceOnUse" x1="334.7046" y1="-707.7914" x2="299.4398" y2="-1483.6177" gradientTransform="matrix(1.043 -0.0393 0.0292 0.7753 85.3131 1182.8048)">
			<stop  offset="0" style="stop-color:#30356D"/>
			<stop  offset="1" style="stop-color:#1F1F1F;stop-opacity:0"/>
		</linearGradient>
		<path class="st2" d="M27.32,611.58L7.2,77.61C6.17,50.41,30,27.4,60.51,26.13L684.89,0.06c30.01-1.25,55.48,19.01,57.45,45.71
			l37.81,510.45c2,27.01-20.75,50.61-51.03,52.95L87.06,658.76C55.56,661.2,28.38,639.73,27.32,611.58z"/>
		<g>
			<g>
				<g>
					
						<linearGradient id="SVGID_2_" gradientUnits="userSpaceOnUse" x1="-13265.6182" y1="15252.1885" x2="-12727.3037" y2="15128.9092" gradientTransform="matrix(-7.559817e-03 1 1 7.559817e-03 -14773.123 13358.4375)">
						<stop  offset="0" style="stop-color:#00C26E"/>
						<stop  offset="1" style="stop-color:#136341"/>
					</linearGradient>
					<path class="st3" d="M516.02,217.42c-2.93,135.74-100.08,260.72-148.29,306.25c247.8,30.36,333.07-207.15,346.6-322.55
						L516.02,217.42z"/>
					<path class="st92" d="M314.86,611.09l-7.53-103.31c143.92,51.41,253.94-15.22,291.44-56.86
						C509.99,578.43,385.69,608.46,314.86,611.09z"/>
					<path class="st93" d="M382.91,525.28c12.42-6.66,24.04-14.74,34.76-23.86c10.73-9.12,20.56-19.27,29.54-30.1
						c17.95-21.7,32.63-45.98,44.68-71.4c12.06-25.44,21.56-52.06,28.98-79.2c7.41-27.16,12.74-54.88,16.05-82.83l0.04-0.37
						l0.38-0.02l150.72-6.5l0.46-0.02l0,0.46c-0.12,13.67-1.91,27.28-4.81,40.61c-2.9,13.34-6.91,26.41-11.68,39.19
						c-4.77,12.78-10.3,25.26-16.41,37.46c-6.16,12.17-12.89,24.04-20.09,35.62c-14.43,23.13-30.66,45.17-48.86,65.48
						c-9.1,10.15-18.65,19.91-28.91,28.88c-10.28,8.9-21.13,17.39-33.5,23.21c12.34-5.87,23.14-14.41,33.37-23.35
						c10.22-9.01,19.71-18.82,28.75-29c18.05-20.4,34.28-42.39,48.64-65.53c7.17-11.57,13.88-23.44,20-35.6
						c6.08-12.18,11.58-24.65,16.32-37.41c4.73-12.76,8.71-25.81,11.58-39.1c2.86-13.29,4.63-26.85,4.73-40.45l0.45,0.44
						l-150.72,6.51l0.42-0.39c-3.36,27.99-8.74,55.74-16.21,82.93c-7.48,27.17-17.04,53.81-29.16,79.27
						c-12.14,25.42-26.8,49.77-44.92,71.39c-9.05,10.8-18.94,20.92-29.72,30C407.03,510.65,395.36,518.68,382.91,525.28z"/>
					<path class="st94" d="M565.12,378.58c-14.25-9.34-41.45,15.99-54.74,36.28c-13.29,20.28-45.08,74.65-22.15,74.82
						c26.17,0.2,60.51-25.46,73.8-45.75S579.38,387.92,565.12,378.58z"/>
					
						<ellipse transform="matrix(0.181 -0.9835 0.9835 0.181 185.6231 831.7373)" class="st93" cx="592.22" cy="304.41" rx="17.8" ry="10.68"/>
					<path class="st95" d="M664.13,205.25l-148.11,12.18c0,0-1.07,62.47-25.23,120.08c0,0,22.28-40.6,35.38-111.02L664.13,205.25z"
						/>
				</g>
				<g>
					
						<linearGradient id="SVGID_3_" gradientUnits="userSpaceOnUse" x1="-10930.458" y1="1105.9496" x2="-10392.1445" y2="982.6698" gradientTransform="matrix(-0.9985 -0.055 -0.055 0.9985 -10394.6807 -1208.9338)">
						<stop  offset="0" style="stop-color:#00C26E"/>
						<stop  offset="1" style="stop-color:#136341"/>
					</linearGradient>
					<path class="st7" d="M452.43,433.59c-135.45-9.37-255.67-112.34-298.86-162.66c-42.09,246.08,191.1,342.53,305.73,361.52
						L452.43,433.59z"/>
					<path class="st92" d="M68.76,213.96l103.55-2.61c-58.18,141.32,3.14,254.38,42.96,293.81
						C92.12,410.42,68.03,284.83,68.76,213.96z"/>
					<path class="st93" d="M151.24,286c6.06,12.72,13.58,24.71,22.19,35.85c8.6,11.15,18.27,21.45,28.66,30.93
						c20.83,18.96,44.38,34.78,69.19,48.02c24.84,13.25,50.98,24.01,77.74,32.71c26.78,8.69,54.21,15.33,81.98,19.96l0.37,0.06
						l0,0.38l-0.67,150.86l0,0.46l-0.46-0.03c-13.65-0.77-27.16-3.21-40.33-6.73c-13.18-3.53-26.06-8.16-38.59-13.52
						c-12.54-5.37-24.75-11.49-36.63-18.17c-11.86-6.73-23.4-14.02-34.62-21.76c-22.42-15.51-43.66-32.77-63.08-51.91
						c-9.7-9.57-19-19.57-27.48-30.25c-8.4-10.69-16.37-21.94-21.59-34.56c5.28,12.6,13.29,23.8,21.74,34.44
						c8.52,10.63,17.86,20.58,27.6,30.09c19.52,19,40.72,36.26,63.15,51.7c11.22,7.71,22.75,14.97,34.61,21.67
						c11.88,6.65,24.08,12.74,36.6,18.08c12.52,5.33,25.36,9.92,38.51,13.42c13.14,3.49,26.6,5.9,40.18,6.64l-0.46,0.43l0.65-150.86
						l0.37,0.44c-27.8-4.69-55.26-11.38-82.06-20.12c-26.79-8.76-52.94-19.58-77.79-32.89c-24.81-13.33-48.44-29.14-69.18-48.26
						c-10.36-9.55-19.99-19.91-28.55-31.11C164.71,310.79,157.24,298.75,151.24,286z"/>
					<path class="st94" d="M289.13,474.98c10.01-13.79-14.01-42.17-33.64-56.4c-19.63-14.24-72.42-48.58-73.68-25.68
						c-1.44,26.13,22.56,61.65,42.19,75.89S279.12,488.77,289.13,474.98z"/>
					
						<ellipse transform="matrix(0.2275 -0.9738 0.9738 0.2275 -212.7246 742.9658)" class="st93" cx="361.92" cy="505.56" rx="10.68" ry="17.8"/>
					<path class="st95" d="M457.56,582.1l-5.13-148.52c0,0-62.35-4.03-118.75-30.91c0,0,39.49,24.18,109.22,40.61L457.56,582.1z"/>
				</g>
			</g>
			<g>
				<g>
					<g>
						<g>
							<path class="st5" d="M285.09,666.52l-101.5-505.41c-1.77-8.8-0.62-17.46,2.7-24.95l13.57-22.05c0,0,12.48-0.44,17.83-0.9
								l202.35-17.42c18.7-1.61,35.72,11.3,40.1,30.41l112.88,493.03c1.26,5.5,4.04,16.66,4.04,16.66l-9.67,15.17
								c-5.85,8.93-15.16,15.38-26.34,16.94l-213.72,29.8C307.6,700.55,289.18,686.91,285.09,666.52z"/>
							<path class="st6" d="M295.46,650.32l-101.5-505.41c-4.71-23.46,11.29-45.93,34.1-47.9L430.4,79.59
								c18.7-1.61,35.72,11.3,40.1,30.41l112.88,493.03c5.26,22.97-9.61,45.65-31.96,48.77l-213.72,29.8
								C317.97,684.36,299.55,670.72,295.46,650.32z"/>
							
								<linearGradient id="SVGID_4_" gradientUnits="userSpaceOnUse" x1="13905.083" y1="633.2202" x2="13761.6748" y2="124.3121" gradientTransform="matrix(1 0 0 1 -13450.5898 0)">
								<stop  offset="0" style="stop-color:#303030"/>
								<stop  offset="1" style="stop-color:#454343"/>
							</linearGradient>
							<path class="st16" d="M299.77,636.58L203.2,153.71c-4.48-22.41,10.7-43.87,32.36-45.74l192.1-16.56
								c17.75-1.53,33.92,10.81,38.08,29.07l107.36,471.05c5,21.94-9.11,43.61-30.33,46.58l-202.9,28.38
								C321.16,669.1,303.67,656.06,299.77,636.58z"/>
							<path class="st98" d="M338.27,667.57c1.79,0,3.6-0.13,5.41-0.38l194.38-27.51c11.23-1.59,21.1-7.8,27.81-17.5
								c7.25-10.48,9.77-23.78,6.93-36.49L469.16,123.07c-4.81-21.46-23.33-35.69-43.83-33.95l-184.06,15.91
								c-11.45,0.99-21.71,6.78-28.88,16.31c-7.78,10.34-10.77,23.72-8.21,36.72l93.31,474.21
								C301.56,652.96,318.9,667.57,338.27,667.57z M428.74,102.73c12.74,0,23.9,9.5,27,23.35L559.38,588.7
								c2.01,8.97,0.25,18.32-4.82,25.67c-4.49,6.5-11.04,10.65-18.41,11.69l-194.38,27.51c-14.27,2.02-27.74-8.52-30.77-23.95
								v-0.01L217.68,155.4c-1.81-9.17,0.28-18.57,5.7-25.79c4.79-6.36,11.57-10.22,19.07-10.87l184.06-15.91
								C427.25,102.76,428,102.73,428.74,102.73z"/>
							<path class="st10" d="M249.85,128.99l-0.76-9.24c-0.02-0.19,0.12-0.35,0.3-0.37l133.47-12.1c0.18-0.02,0.34,0.12,0.35,0.31
								l0.76,9.24c0.02,0.19-0.12,0.35-0.3,0.37L250.2,129.3C250.02,129.32,249.86,129.18,249.85,128.99z"/>
							<path class="st11" d="M401.88,121.21c0.26,0,0.53-0.01,0.8-0.03c5.5-0.46,9.59-5.47,9.12-11.18
								c-0.46-5.7-5.23-10.11-10.82-9.53c-5.5,0.46-9.59,5.47-9.12,11.18l0,0c0.23,2.84,1.52,5.4,3.65,7.21
								C397.32,120.39,399.56,121.21,401.88,121.21z M401.78,107.31c1.62,0,3.02,1.41,3.17,3.25c0.15,1.93-1.11,3.62-2.84,3.77
								c-0.74,0.07-1.52-0.2-2.14-0.73c-0.73-0.62-1.18-1.51-1.26-2.51v-0.01c-0.16-1.93,1.11-3.62,2.84-3.77
								C401.62,107.31,401.7,107.31,401.78,107.31z"/>
							<ellipse class="st10" cx="401.87" cy="110.61" rx="4.19" ry="4.52"/>
							<polygon class="st99" points="250.56,384.48 481.36,185.51 508.4,304.17 279.06,523.97 							"/>
							<polygon class="st99" points="285.62,556.8 516.99,341.84 527.69,388.81 293.29,595.15 							"/>
							<path class="st12" d="M301.19,90.72l-78.26,7.2c-8.84,1.26-33.43,12.61-28.78,46.33l17.58,89.24
								c0,0-15.51-89.76-10.96-103.58c4.45-13.48,10.49-21.09,27.14-25.36C237.62,102.06,301.19,90.72,301.19,90.72z"/>
						</g>
					</g>
					<g>
						
							<linearGradient id="SVGID_5_" gradientUnits="userSpaceOnUse" x1="-14164.5088" y1="337.5626" x2="-14145.0176" y2="273.0461" gradientTransform="matrix(-1 0 0 1 -13718.9697 0)">
							<stop  offset="0" style="stop-color:#864C33"/>
							<stop  offset="0.1544" style="stop-color:#8C5034"/>
							<stop  offset="0.3609" style="stop-color:#9D5C37"/>
							<stop  offset="0.5971" style="stop-color:#B9703C"/>
							<stop  offset="0.8533" style="stop-color:#DF8C43"/>
							<stop  offset="1" style="stop-color:#F99E48"/>
						</linearGradient>
						<polygon class="st17" points="464.07,334.79 452.07,270.61 401.72,281.11 448.23,276.77 						"/>
						
							<linearGradient id="SVGID_6_" gradientUnits="userSpaceOnUse" x1="22424.1387" y1="7765.1416" x2="22443.6309" y2="7700.6255" gradientTransform="matrix(0.9219 -0.3875 0.3875 0.9219 -23352.4609 1890.3552)">
							<stop  offset="0" style="stop-color:#864C33"/>
							<stop  offset="0.1544" style="stop-color:#8C5034"/>
							<stop  offset="0.3609" style="stop-color:#9D5C37"/>
							<stop  offset="0.5971" style="stop-color:#B9703C"/>
							<stop  offset="0.8533" style="stop-color:#DF8C43"/>
							<stop  offset="1" style="stop-color:#F99E48"/>
						</linearGradient>
						<polygon class="st18" points="310.5,364.04 296.7,300.22 347.18,290.39 302.62,304.42 						"/>
						
							<linearGradient id="SVGID_7_" gradientUnits="userSpaceOnUse" x1="21925.5488" y1="9974.3633" x2="21945.041" y2="9909.8467" gradientTransform="matrix(0.9999 0.0104 0.0104 -0.9999 -21693.6504 10151.0527)">
							<stop  offset="0" style="stop-color:#864C33"/>
							<stop  offset="0.1544" style="stop-color:#8C5034"/>
							<stop  offset="0.3609" style="stop-color:#9D5C37"/>
							<stop  offset="0.5971" style="stop-color:#B9703C"/>
							<stop  offset="0.8533" style="stop-color:#DF8C43"/>
							<stop  offset="1" style="stop-color:#F99E48"/>
						</linearGradient>
						<polygon class="st19" points="316.29,408.74 327.62,473.05 378.07,463.07 331.52,466.92 						"/>
						
							<linearGradient id="SVGID_8_" gradientUnits="userSpaceOnUse" x1="-14879.5986" y1="2454.7874" x2="-14860.1064" y2="2390.2708" gradientTransform="matrix(-0.9238 0.3828 -0.3828 -0.9238 -12353.4863 8344.252)">
							<stop  offset="0" style="stop-color:#864C33"/>
							<stop  offset="0.1544" style="stop-color:#8C5034"/>
							<stop  offset="0.3609" style="stop-color:#9D5C37"/>
							<stop  offset="0.5971" style="stop-color:#B9703C"/>
							<stop  offset="0.8533" style="stop-color:#DF8C43"/>
							<stop  offset="1" style="stop-color:#F99E48"/>
						</linearGradient>
						<polygon class="st20" points="471.23,375.99 484.71,439.87 434.18,449.44 478.81,435.64 						"/>
					</g>
					<g>
						
							<linearGradient id="SVGID_9_" gradientUnits="userSpaceOnUse" x1="-14109.1719" y1="361.4137" x2="-14094.4639" y2="321.39" gradientTransform="matrix(-1 0 0 1 -13718.9697 0)">
							<stop  offset="0" style="stop-color:#F99F41"/>
							<stop  offset="1" style="stop-color:#FAAB13"/>
						</linearGradient>
						<path class="st22" d="M403.28,332.37c-4.35-10.5-17.1-15.19-28.49-10.47s-17.09,17.05-12.74,27.55s17.1,15.19,28.49,10.47
							C401.93,355.2,407.63,342.87,403.28,332.37z"/>
						
							<linearGradient id="SVGID_10_" gradientUnits="userSpaceOnUse" x1="-14118.3184" y1="416.017" x2="-14103.8838" y2="368.2407" gradientTransform="matrix(-1 0 0 1 -13718.9697 0)">
							<stop  offset="0" style="stop-color:#F77A32"/>
							<stop  offset="1" style="stop-color:#F99E48"/>
						</linearGradient>
						<path class="st23" d="M434.97,407.31c7.19-1.57,10.93-9.65,7.33-16.07c-10.16-18.1-31.83-28.15-54.01-23.32
							c-22.1,4.82-37.89,22.94-40.11,43.63c-0.8,7.41,6.05,13.37,13.34,11.78L434.97,407.31z"/>
					</g>
				</g>
				<g>
					
						<linearGradient id="SVGID_11_" gradientUnits="userSpaceOnUse" x1="-25517.6445" y1="6506.4863" x2="-25496.8262" y2="6594.2627" gradientTransform="matrix(-0.39 0.3013 0.2501 0.449 -11453.4707 4899.6094)">
						<stop  offset="0" style="stop-color:#F6B64E"/>
						<stop  offset="1" style="stop-color:#F6864D"/>
					</linearGradient>
					<path class="st24" d="M125.08,135.26l17.72,10.54l-3.2,29.2l-21.49-19.04L125.08,135.26z"/>
					
						<linearGradient id="SVGID_12_" gradientUnits="userSpaceOnUse" x1="-24047.707" y1="80.6536" x2="-24026.6152" y2="170.0747" gradientTransform="matrix(-0.4698 0.1489 0.0805 0.5076 -10696.1797 4046.1252)">
						<stop  offset="0" style="stop-color:#F6B64E"/>
						<stop  offset="0.5971" style="stop-color:#F69B4D"/>
						<stop  offset="1" style="stop-color:#F6864D"/>
					</linearGradient>
					<path class="st25" d="M607.98,506.72l5.15,22.91l-7,25.08l-6.44-28.64L607.98,506.72z"/>
					
						<linearGradient id="SVGID_13_" gradientUnits="userSpaceOnUse" x1="-25293.1836" y1="446.8368" x2="-25305.5332" y2="570.9561" gradientTransform="matrix(-0.4656 0.1615 0.0941 0.5053 -11161.1123 4237.3804)">
						<stop  offset="0" style="stop-color:#F6B64E"/>
						<stop  offset="0.2902" style="stop-color:#F6AD4E"/>
						<stop  offset="0.7625" style="stop-color:#F6954D"/>
						<stop  offset="1" style="stop-color:#F6864D"/>
					</linearGradient>
					<path class="st26" d="M660.06,376.77l24.01,30.79l-8.49,30.53l-30-38.49L660.06,376.77z"/>
					
						<linearGradient id="SVGID_14_" gradientUnits="userSpaceOnUse" x1="-25945.1133" y1="13740.2637" x2="-25894.7168" y2="13934.0928" gradientTransform="matrix(-0.2468 0.4266 0.4015 0.3208 -11768.3574 7212.7114)">
						<stop  offset="0" style="stop-color:#F6B64E"/>
						<stop  offset="1" style="stop-color:#F6864D"/>
					</linearGradient>
					<path class="st27" d="M146.88,544.67l44.62,33.39l27.13,57.84l-55.76-41.74L146.88,544.67z"/>
					
						<linearGradient id="SVGID_15_" gradientUnits="userSpaceOnUse" x1="-26626.0273" y1="12059.9258" x2="-26539.6484" y2="12075.7988" gradientTransform="matrix(-0.2964 0.3937 0.3599 0.3669 -11685.7334 6214.8965)">
						<stop  offset="0" style="stop-color:#F6B64E"/>
						<stop  offset="1" style="stop-color:#F6864D"/>
					</linearGradient>
					<path class="st30" d="M526.73,195.67l3.76-24.32l15.31-17.04l-4.71,30.4L526.73,195.67z"/>
				</g>
			</g>
		</g>
	</g>
</g>
</svg>
