<?xml version="1.0" encoding="utf-8"?>
<!-- Generator: Adobe Adobe Illustrator 24.2.0, SVG Export Plug-In . SVG Version: 6.00 Build 0)  -->
<svg version="1.1" id="Layer_1" xmlns="http://www.w3.org/2000/svg" xmlns:xlink="http://www.w3.org/1999/xlink" x="0px" y="0px"
	 width="783.86px" height="711.08px" viewBox="0 0 783.86 711.08" style="enable-background:new 0 0 783.86 711.08;"
	 xml:space="preserve">
<style type="text/css">
	.st0{display:none;}
	.st1{display:inline;}
	.st2{fill:url(#SVGID_1_);}
	.st3{fill:url(#SVGID_2_);}
	.st4{fill:none;stroke:#8F529B;stroke-miterlimit:10;}
	.st5{fill:#44224A;}
	.st6{fill:#8F529B;}
	.st7{fill:url(#SVGID_3_);}
	.st8{opacity:0.7294;fill:#FEDD8E;}
	.st9{fill:#8C5197;}
	.st10{fill:#5E5E5E;}
	.st11{fill:#8C8C8C;}
	.st12{fill:#CF83DE;}
	.st13{fill:#3EB000;}
	.st14{fill:#68ED01;}
	.st15{fill:#B8FF29;}
	.st16{fill:url(#SVGID_4_);}
	.st17{fill:url(#SVGID_5_);}
	.st18{fill:url(#SVGID_6_);}
	.st19{fill:url(#SVGID_7_);}
	.st20{fill:url(#SVGID_8_);}
	.st21{fill:#30356B;}
	.st22{fill:url(#SVGID_9_);}
	.st23{fill:url(#SVGID_10_);}
	.st24{fill:url(#SVGID_11_);}
	.st25{fill:url(#SVGID_12_);}
	.st26{fill:url(#SVGID_13_);}
	.st27{fill:url(#SVGID_14_);}
	.st28{fill:#303361;}
	.st29{fill:#F57743;}
	.st30{fill:url(#SVGID_15_);}
	.st31{fill:#EE8041;}
	.st32{fill:#FAC74C;}
	.st33{fill:#E3793B;}
	.st34{fill:#F1B343;}
	.st35{fill:#FAC84D;}
	.st36{fill:#F2B645;}
	.st37{fill:#FFE79A;}
	.st38{fill:url(#SVGID_16_);}
	.st39{fill:url(#SVGID_17_);}
	.st40{fill:url(#SVGID_18_);}
	.st41{fill:url(#SVGID_19_);}
	.st42{fill:url(#SVGID_20_);}
	.st43{fill:url(#SVGID_21_);}
	.st44{fill:url(#SVGID_22_);}
	.st45{fill:url(#SVGID_23_);}
	.st46{fill:url(#SVGID_24_);}
	.st47{fill:url(#SVGID_25_);}
	.st48{fill:url(#SVGID_26_);}
	.st49{fill:url(#SVGID_27_);}
	.st50{fill:url(#SVGID_28_);}
	.st51{fill:url(#SVGID_29_);}
	.st52{fill:url(#SVGID_30_);}
	.st53{fill:url(#SVGID_31_);}
	.st54{fill:url(#SVGID_32_);}
	.st55{fill:url(#SVGID_33_);}
	.st56{fill:url(#SVGID_34_);}
	.st57{fill:none;}
	.st58{font-family:'Helvetica-Bold';}
	.st59{font-size:251px;}
	.st60{fill:#F58A42;}
	.st61{fill:url(#SVGID_35_);}
	.st62{fill:url(#SVGID_36_);}
	.st63{fill:url(#SVGID_37_);}
	.st64{fill:url(#SVGID_38_);}
	.st65{fill:url(#SVGID_39_);}
	.st66{fill:url(#SVGID_40_);}
	.st67{fill:url(#SVGID_41_);}
	.st68{fill:url(#SVGID_42_);}
	.st69{fill:url(#SVGID_43_);}
	.st70{fill:url(#SVGID_44_);}
	.st71{fill:url(#SVGID_45_);}
	.st72{fill:url(#SVGID_46_);}
	.st73{fill:url(#SVGID_47_);}
	.st74{fill:url(#SVGID_48_);}
	.st75{fill:url(#SVGID_49_);}
	.st76{fill:url(#SVGID_50_);}
	.st77{fill:url(#SVGID_51_);}
	.st78{fill:url(#SVGID_52_);}
	.st79{fill:url(#SVGID_53_);}
	.st80{fill:url(#SVGID_54_);}
	.st81{fill:url(#SVGID_55_);}
	.st82{fill:url(#SVGID_56_);}
	.st83{fill:url(#SVGID_57_);}
	.st84{fill:url(#SVGID_58_);}
	.st85{fill:url(#SVGID_59_);}
	.st86{fill:url(#SVGID_60_);}
	.st87{fill:url(#SVGID_61_);}
	.st88{fill:url(#SVGID_62_);}
	.st89{fill:url(#SVGID_63_);}
	.st90{fill:url(#SVGID_64_);}
	.st91{fill:url(#SVGID_65_);}
	.st92{fill:url(#SVGID_66_);}
	.st93{fill:#289263;}
	.st94{fill:url(#SVGID_67_);}
	.st95{fill:url(#SVGID_68_);}
	.st96{fill:#253D38;}
	.st97{fill:#2F7858;}
	.st98{fill:#227350;}
	.st99{fill:#37ED9E;}
	.st100{fill:url(#SVGID_69_);}
	.st101{fill:url(#SVGID_70_);}
	.st102{fill:#474747;}
	.st103{opacity:0.1686;fill:#D9D9D9;}
	.st104{fill:url(#SVGID_71_);}
	.st105{fill:url(#SVGID_72_);}
	.st106{fill:url(#SVGID_73_);}
	.st107{fill:url(#SVGID_74_);}
	.st108{fill:url(#SVGID_75_);}
	.st109{fill:url(#SVGID_76_);}
	.st110{fill:url(#SVGID_77_);}
	.st111{fill:url(#SVGID_78_);}
	.st112{fill:url(#SVGID_79_);}
	.st113{fill:url(#SVGID_80_);}
	.st114{fill:url(#SVGID_81_);}
	.st115{display:inline;fill:none;stroke:#289263;stroke-width:0.7;stroke-miterlimit:10;}
	.st116{display:inline;fill:url(#SVGID_82_);}
	.st117{fill:url(#SVGID_83_);}
	.st118{fill:url(#SVGID_84_);}
	.st119{fill:url(#SVGID_85_);}
	.st120{fill:url(#SVGID_86_);}
	.st121{fill:url(#SVGID_87_);}
	.st122{fill:url(#SVGID_88_);}
	.st123{fill:url(#SVGID_89_);}
	.st124{fill:url(#SVGID_90_);}
	.st125{fill:url(#SVGID_91_);}
	.st126{fill:url(#SVGID_92_);}
	.st127{fill:url(#SVGID_93_);}
	.st128{fill:url(#SVGID_94_);}
	.st129{fill:url(#SVGID_95_);}
	.st130{fill:url(#SVGID_96_);}
	.st131{fill:url(#SVGID_97_);}
	.st132{fill:url(#SVGID_98_);}
	.st133{fill:url(#SVGID_99_);}
	.st134{fill:url(#SVGID_100_);}
	.st135{fill:url(#SVGID_101_);}
	.st136{fill:url(#SVGID_102_);}
	.st137{fill:url(#SVGID_103_);}
	.st138{fill:url(#SVGID_104_);}
	.st139{fill:url(#SVGID_105_);}
	.st140{fill:url(#SVGID_106_);}
	.st141{fill:url(#SVGID_107_);}
	.st142{fill:url(#SVGID_108_);}
	.st143{fill:url(#SVGID_109_);}
	.st144{fill:url(#SVGID_110_);}
	.st145{fill:url(#SVGID_111_);}
	.st146{fill:url(#SVGID_112_);}
	.st147{fill:url(#SVGID_113_);}
	.st148{fill:url(#SVGID_114_);}
	.st149{fill:url(#SVGID_115_);}
	.st150{fill:url(#SVGID_116_);}
	.st151{fill:url(#SVGID_117_);}
	.st152{fill:url(#SVGID_118_);}
	.st153{fill:url(#SVGID_119_);}
	.st154{fill:url(#SVGID_120_);}
	.st155{fill:url(#SVGID_121_);}
	.st156{fill:url(#SVGID_122_);}
	.st157{fill:url(#SVGID_123_);}
	.st158{fill:url(#SVGID_124_);}
	.st159{fill:url(#SVGID_125_);}
	.st160{fill:url(#SVGID_126_);}
	.st161{fill:url(#SVGID_127_);}
	.st162{fill:#185E40;}
	.st163{fill:url(#SVGID_128_);}
	.st164{fill:url(#SVGID_129_);}
	.st165{fill:url(#SVGID_130_);}
	.st166{fill:url(#SVGID_131_);}
	.st167{fill:url(#SVGID_132_);}
	.st168{fill:url(#SVGID_133_);}
	.st169{opacity:0.702;fill:url(#SVGID_134_);}
	.st170{fill:url(#SVGID_135_);}
	.st171{opacity:0.4588;fill:#232D67;}
	.st172{fill:url(#SVGID_136_);}
	.st173{fill:url(#SVGID_137_);}
	.st174{fill:url(#SVGID_138_);}
	.st175{fill:url(#SVGID_139_);}
	.st176{fill:url(#SVGID_140_);}
	.st177{fill:url(#SVGID_141_);}
	.st178{fill:url(#SVGID_142_);}
	.st179{fill:url(#SVGID_143_);}
	.st180{fill:#424987;}
	.st181{fill:#424886;}
	.st182{fill:#FDAB5B;}
	.st183{fill:url(#SVGID_144_);}
	.st184{fill:url(#SVGID_145_);}
	.st185{fill:url(#SVGID_146_);}
	.st186{fill:#BA5D8F;}
	.st187{fill:url(#SVGID_147_);}
	.st188{fill:url(#SVGID_148_);}
	.st189{fill:url(#SVGID_149_);}
	.st190{fill:#683573;}
	.st191{fill:url(#SVGID_150_);}
	.st192{fill:url(#SVGID_151_);}
	.st193{fill:url(#SVGID_152_);}
	.st194{fill:url(#SVGID_153_);}
	.st195{fill:url(#SVGID_154_);}
	.st196{fill:url(#SVGID_155_);}
	.st197{fill:url(#SVGID_156_);}
	.st198{fill:url(#SVGID_157_);}
	.st199{fill:url(#SVGID_158_);}
	.st200{fill:url(#SVGID_159_);}
	.st201{fill:none;stroke:#289263;stroke-width:0.7;stroke-miterlimit:10;}
	.st202{fill:url(#SVGID_160_);}
	.st203{fill:url(#SVGID_161_);}
	.st204{fill:url(#SVGID_162_);}
	.st205{fill:url(#SVGID_163_);}
	.st206{fill:url(#SVGID_164_);}
	.st207{fill:url(#SVGID_165_);}
	.st208{fill:url(#SVGID_166_);}
	.st209{opacity:0.702;fill:url(#SVGID_167_);}
	.st210{fill:url(#SVGID_168_);}
	.st211{fill:url(#SVGID_169_);}
	.st212{fill:url(#SVGID_170_);}
	.st213{fill:url(#SVGID_171_);}
	.st214{fill:url(#SVGID_172_);}
	.st215{fill:url(#SVGID_173_);}
	.st216{fill:url(#SVGID_174_);}
	.st217{fill:url(#SVGID_175_);}
	.st218{fill:url(#SVGID_176_);}
	.st219{fill:url(#SVGID_177_);}
	.st220{fill:url(#SVGID_178_);}
	.st221{fill:url(#SVGID_179_);}
	.st222{fill:url(#SVGID_180_);}
	.st223{fill:url(#SVGID_181_);}
	.st224{fill:url(#SVGID_182_);}
	.st225{fill:url(#SVGID_183_);}
	.st226{fill:url(#SVGID_184_);}
	.st227{fill:url(#SVGID_185_);}
	.st228{fill:url(#SVGID_186_);}
	.st229{fill:url(#SVGID_187_);}
	.st230{fill:url(#SVGID_188_);}
	.st231{fill:url(#SVGID_189_);}
	.st232{fill:url(#SVGID_190_);}
	.st233{fill:url(#SVGID_191_);}
	.st234{fill:url(#SVGID_192_);}
</style>
<g>
	<g>
		<g>
			
				<linearGradient id="SVGID_1_" gradientUnits="userSpaceOnUse" x1="234.1316" y1="39.8009" x2="199.7025" y2="-717.6375" gradientTransform="matrix(1.043 -0.0393 0.0292 0.7753 165.2924 583.6451)">
				<stop  offset="0" style="stop-color:#30356D"/>
				<stop  offset="1" style="stop-color:#1F1F1F;stop-opacity:0"/>
			</linearGradient>
			<path class="st2" d="M19.67,597.01L-0.75,75.76C-1.79,49.21,22.4,26.75,53.36,25.5L687.05,0.05
				c30.46-1.22,56.3,18.56,58.31,44.62l38.37,498.29c2.03,26.36-21.06,49.41-51.79,51.69L80.3,643.07
				C48.34,645.44,20.75,624.49,19.67,597.01z"/>
			
				<linearGradient id="SVGID_2_" gradientUnits="userSpaceOnUse" x1="-301.0572" y1="409.9993" x2="692.4222" y2="409.9993" gradientTransform="matrix(1.043 -0.0393 0.0367 0.9746 137.6419 -144.7713)">
				<stop  offset="0" style="stop-color:#121212"/>
				<stop  offset="9.592784e-03" style="stop-color:#131415"/>
				<stop  offset="0.1705" style="stop-color:#292B3F"/>
				<stop  offset="0.3154" style="stop-color:#383C5E"/>
				<stop  offset="0.4382" style="stop-color:#424671"/>
				<stop  offset="0.524" style="stop-color:#454A78"/>
				<stop  offset="0.6403" style="stop-color:#3B3F64"/>
				<stop  offset="0.8779" style="stop-color:#21222F"/>
				<stop  offset="1" style="stop-color:#121212"/>
			</linearGradient>
			<path class="st3" d="M3.71,189.73c126.7-31.16,87.66-49.86,194.33-24.34s79.15,44.47,201.18,47.9s322.54-59.67,350.07-76.82
				l3.85,52.34c0,0-26.73-10.91-129.67,41.08s-315.93-37.89-411.54-21.47S10.48,362.53,10.48,362.53L3.71,189.73z"/>
			
				<linearGradient id="SVGID_3_" gradientUnits="userSpaceOnUse" x1="-272.6415" y1="497.331" x2="721.5895" y2="497.331" gradientTransform="matrix(1.043 -0.0393 0.0367 0.9746 137.6419 -144.7713)">
				<stop  offset="0" style="stop-color:#121212"/>
				<stop  offset="0.012" style="stop-color:#141416"/>
				<stop  offset="0.1489" style="stop-color:#27293C"/>
				<stop  offset="0.2755" style="stop-color:#353857"/>
				<stop  offset="0.3867" style="stop-color:#3D4268"/>
				<stop  offset="0.4705" style="stop-color:#40456E"/>
				<stop  offset="0.5649" style="stop-color:#3D4268"/>
				<stop  offset="0.6901" style="stop-color:#353857"/>
				<stop  offset="0.8326" style="stop-color:#27293C"/>
				<stop  offset="0.9869" style="stop-color:#141416"/>
				<stop  offset="1" style="stop-color:#121212"/>
			</linearGradient>
			<path class="st7" d="M9.99,349.96c126.7-31.16,174.26-94.37,280.93-68.85s176.46-24.78,254.67,25.51
				c89.31,57.42,186.27-1.92,213.81-19.07l2.43,27.79c0,0-155.66,62.15-247.56,26.57c-107.91-41.78-202.68-46.96-298.29-30.54
				S12.22,406.96,12.22,406.96L9.99,349.96z"/>
		</g>
		<g>
			<g>
				<g>
					<g>
						<path class="st5" d="M492.1,678.58l112.38-519.2c10.34-47.78-23.71-62.65-30.1-67.07c-9.58-6.63,4.97,18.88-7.66,17.87
							l-224.03-17.9c-20.7-1.65-39.55,11.61-44.4,31.24L173.32,630c-1.2,4.85-11.79-7.77-11.23-3.12
							c2.18,17.99,8.93,46.47,46.61,53.22l236.63,30.62C467.17,713.55,487.56,699.53,492.1,678.58z"/>
						<path class="st6" d="M480.39,654.59l112.38-519.2c5.22-24.1-12.5-47.19-37.75-49.2l-224.03-17.9
							c-20.7-1.65-39.55,11.61-44.4,31.24L161.61,606.01c-5.82,23.59,10.64,46.9,35.39,50.1l236.63,30.62
							C455.47,689.56,475.85,675.55,480.39,654.59z"/>
						
							<linearGradient id="SVGID_4_" gradientUnits="userSpaceOnUse" x1="-14516.7471" y1="640.1389" x2="-14665.7363" y2="111.4259" gradientTransform="matrix(-1 0 0 1 -14207.5938 0)">
							<stop  offset="0" style="stop-color:#FDB047"/>
							<stop  offset="1" style="stop-color:#FFD43B"/>
						</linearGradient>
						<path class="st16" d="M475.61,640.47l106.92-496.05c4.96-23.03-11.84-45.07-35.82-46.99L334.02,80.43
							c-19.65-1.57-37.56,11.11-42.16,29.86l-118.87,483.9c-5.54,22.54,10.08,44.8,33.58,47.85l224.64,29.15
							C451.94,673.88,471.3,660.49,475.61,640.47z"/>
						<polygon class="st8" points="530.09,381.5 274.57,177.09 244.62,298.99 498.55,524.79 						"/>
						<polygon class="st8" points="491.28,558.52 235.12,337.69 223.27,385.94 482.78,597.92 						"/>
						<path class="st9" d="M470.67,634.69l41.52-197.18l41.12-197.25l10.27-49.31l5.13-24.66l2.57-12.33l1.28-6.16
							c0.21-1.03,0.32-2.02,0.49-3.03l0.23-1.51l0.07-1.52c0.31-4.05-0.22-8.13-1.3-12.05c-0.48-1.98-1.32-3.86-2.09-5.75
							c-0.96-1.82-1.88-3.65-3.11-5.32c-2.37-3.38-5.26-6.46-8.69-8.93c-3.45-2.44-7.33-4.32-11.45-5.5l-3.13-0.76l-3.21-0.42
							c-2.17-0.25-4.47-0.37-6.7-0.56l-13.49-1.04L493.2,99.3l-107.87-8.52l-26.97-2.13l-13.48-1.07c-4.46-0.29-9.1-0.89-13.26-0.78
							c-8.55,0.27-16.84,3.76-22.98,9.31c-3.09,2.76-5.66,6.02-7.63,9.57l-1.35,2.72c-0.4,0.93-0.74,1.88-1.11,2.81
							c-0.63,1.91-1.16,3.82-1.64,5.9l-47.61,195.99l-48.02,195.9l-12.01,48.97l-6.01,24.49c-0.98,4.09-2.13,8.16-2.65,12.23
							c-0.53,4.1-0.19,8.26,0.64,12.3c0.82,4.06,2.46,7.96,4.65,11.54c2.21,3.56,4.93,6.91,8.33,9.59c3.36,2.7,7.21,4.87,11.37,6.34
							l3.17,0.97l3.27,0.63c2.19,0.39,4.45,0.63,6.68,0.95l53.58,7.18l107.17,14.21l26.79,3.55l13.4,1.78
							c4.47,0.53,8.92,1.38,13.42,1.41c9.01,0.05,17.95-3.27,24.59-8.92C464.38,650.6,468.86,642.88,470.67,634.69z M470.67,634.69
							c-1.78,8.2-6.24,15.94-12.95,21.58c-6.64,5.68-15.59,9.04-24.64,9.01c-4.53-0.02-8.98-0.85-13.45-1.38l-13.4-1.74l-26.8-3.48
							l-107.21-13.94l-53.62-6.9c-2.24-0.31-4.47-0.52-6.71-0.91l-3.36-0.63l-3.26-0.97c-4.28-1.48-8.27-3.68-11.74-6.44
							c-3.51-2.73-6.34-6.15-8.64-9.81c-2.27-3.67-3.99-7.67-4.87-11.84c-0.89-4.15-1.27-8.44-0.75-12.67
							c0.51-4.25,1.64-8.31,2.58-12.39l5.83-24.52l11.65-49.05l46.64-196.19l47.05-196.1c0.47-2.01,1.06-4.16,1.76-6.24
							c0.41-1.03,0.79-2.06,1.23-3.08l1.49-2.98c2.17-3.89,5.02-7.46,8.43-10.5c6.79-6.1,16.01-9.98,25.55-10.25
							c4.86-0.09,9.2,0.52,13.73,0.82l13.48,1.1l26.96,2.2l107.85,8.79l26.96,2.22l13.48,1.12c2.26,0.21,4.46,0.33,6.77,0.61
							l3.49,0.49l3.41,0.85c4.48,1.32,8.69,3.39,12.4,6.05c3.69,2.69,6.78,6.03,9.29,9.66c1.3,1.81,2.29,3.77,3.29,5.72
							c0.82,2.02,1.69,4.03,2.19,6.15c1.13,4.18,1.66,8.53,1.29,12.83l-0.09,1.61l-0.25,1.6c-0.18,1.06-0.32,2.15-0.54,3.18
							l-1.33,6.16l-2.66,12.31l-5.32,24.62l-10.63,49.25l-42.49,197L470.67,634.69z"/>
						<path class="st10" d="M530.89,119.04l0.85-9.49c0.02-0.19-0.13-0.36-0.33-0.38L383.63,96.74c-0.2-0.02-0.37,0.13-0.39,0.32
							l-0.85,9.49c-0.02,0.19,0.13,0.36,0.33,0.38l147.77,12.43C530.69,119.37,530.87,119.23,530.89,119.04z"/>
						<path class="st11" d="M362.57,108.43c-0.22,0-0.44-0.01-0.66-0.03c-4.54-0.35-7.92-4.24-7.53-8.67
							c0.2-2.22,1.29-4.22,3.08-5.63c1.66-1.31,3.75-1.93,5.88-1.77c4.54,0.35,7.92,4.24,7.53,8.67l0,0
							c-0.2,2.22-1.29,4.22-3.08,5.63C366.29,107.8,364.46,108.43,362.57,108.43z M362.68,94.15c-1.42,0-2.8,0.48-3.93,1.36
							c-1.38,1.09-2.23,2.64-2.38,4.37c-0.3,3.42,2.26,6.42,5.71,6.68c1.59,0.12,3.17-0.35,4.42-1.34c1.38-1.09,2.23-2.64,2.38-4.37
							c0.3-3.42-2.26-6.42-5.71-6.68C363,94.16,362.84,94.15,362.68,94.15z"/>
						<ellipse class="st10" cx="362.57" cy="100.15" rx="4.64" ry="4.65"/>
						<path class="st12" d="M474.04,79.72l86.64,7.39c9.78,1.3,37.01,12.95,31.86,47.6l-19.47,91.68c0,0,17.18-92.21,12.13-106.41
							c-4.92-13.85-11.62-21.66-30.05-26.05C544.43,91.37,474.04,79.72,474.04,79.72z"/>
					</g>
					<g>
						<path class="st13" d="M214.83,395.95l-7.25-133.69l20.56,27.41l12.68,114.96L214.83,395.95z"/>
						<path class="st13" d="M166.3,468.93l48.96-29.53l25.99,8.68l-58.78,37.19L166.3,468.93z"/>
						<path class="st13" d="M269.42,572.59l6.9-216.57l20.86,31.47l-11.7,224.59L269.42,572.59z"/>
						<path class="st14" d="M207.58,262.26l-92.08,48.2l50.8,158.47l48.96-29.53l70.21,172.69l-9.16-256.06l-61.49,39.93
							L207.58,262.26z"/>
						<path class="st15" d="M173.51,455.41L115.5,310.46l50.8,158.47l48.96-29.53l63.95,157.28l-59.3-171.13L173.51,455.41z"/>
					</g>
				</g>
				<polygon class="st57" points="524.75,276.64 345.17,252.36 311.52,482.66 491.1,506.93 				"/>
				<text transform="matrix(1.0288 0.1391 -0.1446 0.9895 319.0896 430.8745)" class="st6 st58 st59">₹</text>
				<polygon class="st57" points="519.71,271.79 340.14,247.52 306.48,477.81 486.06,502.09 				"/>
				<text transform="matrix(1.0288 0.1391 -0.1446 0.9895 314.0519 426.0294)" class="st60 st58 st59">₹</text>
			</g>
			<g>
				
					<linearGradient id="SVGID_5_" gradientUnits="userSpaceOnUse" x1="1491.3513" y1="5480.9893" x2="1532.7498" y2="5419.8696" gradientTransform="matrix(0.5358 -0.5358 0.6123 0.6123 -4058.4495 -2021.8247)">
					<stop  offset="0" style="stop-color:#656AAA"/>
					<stop  offset="1" style="stop-color:#CF83DE"/>
				</linearGradient>
				<path class="st17" d="M89.74,546.88c0-36.57-28.25-44.78-28.25-44.78c25.28,0,28.93-38.38,28.93-38.38
					c0,33.42,25.08,39.78,25.08,39.78C93.16,503.49,89.74,546.88,89.74,546.88z"/>
				
					<linearGradient id="SVGID_6_" gradientUnits="userSpaceOnUse" x1="1933.4248" y1="5250.4062" x2="1974.8232" y2="5189.2866" gradientTransform="matrix(0.5358 -0.5358 0.6123 0.6123 -4058.4495 -2021.8247)">
					<stop  offset="0" style="stop-color:#656AAA"/>
					<stop  offset="1" style="stop-color:#CF83DE"/>
				</linearGradient>
				<path class="st18" d="M185.41,168.82c0-36.57-28.25-44.78-28.25-44.78c25.28,0,28.93-38.38,28.93-38.38
					c0,33.42,25.08,39.78,25.08,39.78C188.83,125.44,185.41,168.82,185.41,168.82z"/>
				
					<linearGradient id="SVGID_7_" gradientUnits="userSpaceOnUse" x1="2102.9839" y1="5804.29" x2="2144.3823" y2="5743.1704" gradientTransform="matrix(0.5358 -0.5358 0.6123 0.6123 -4058.4495 -2021.8247)">
					<stop  offset="0" style="stop-color:#656AAA"/>
					<stop  offset="1" style="stop-color:#CF83DE"/>
				</linearGradient>
				<path class="st19" d="M615.42,417.13c0-36.57-28.25-44.78-28.25-44.78c25.28,0,28.93-38.38,28.93-38.38
					c0,33.42,25.08,39.78,25.08,39.78C618.84,373.75,615.42,417.13,615.42,417.13z"/>
				
					<linearGradient id="SVGID_8_" gradientUnits="userSpaceOnUse" x1="2108.8586" y1="5929.2349" x2="2187.9788" y2="5812.4233" gradientTransform="matrix(0.5358 -0.5358 0.6123 0.6123 -4058.4495 -2021.8247)">
					<stop  offset="0" style="stop-color:#656AAA"/>
					<stop  offset="1" style="stop-color:#CF83DE"/>
				</linearGradient>
				<path class="st20" d="M688.63,501.02c0-69.89-53.99-85.58-53.99-85.58c48.31,0,55.28-73.35,55.28-73.35
					c0,63.88,47.93,76.02,47.93,76.02C695.16,418.1,688.63,501.02,688.63,501.02z"/>
			</g>
		</g>
	</g>
</g>
</svg>
